# xmcd CD database file
#
# Track frame offsets:
#	150
#	17086
#	31824
#	47324
#	72517
#	90670
#	107593
#	125522
#	145729
#	162021
#	178510
#	193083
#	207188
#	224136
#	248125
#	264152
#	280225
#	298221
#	317178
#	332212
#
# Disc length: 4646 seconds
#
# Revision: 1
# Processed by: cddbd v1.5PL3 Copyright (c) Steve Scherf et al.
# Submitted via: jetAudio 5
#
DISCID=2d122414
DTITLE=Various Artist - Today's Modern Country
DYEAR=1900
DGENRE=
TTITLE0=What A Beautiful Day
TTITLE1=This Kiss
TTITLE2=I Like It, I Love It
TTITLE3=Born To Fly
TTITLE4=It's A Great Day To Be Alive
TTITLE5=Wide Open Spaces
TTITLE6=Have You Forgotten?
TTITLE7=Only In America
TTITLE8=Angels In Waiting
TTITLE9=Beautiful Goodbye
TTITLE10=I'm Gonna Miss Her
TTITLE11=How Forever Feels
TTITLE12=One Way Ticket (Because I Can)
TTITLE13=Somebody Like You
TTITLE14=Don't Be Stupid (You Know I Love You)
TTITLE15=For You I Will
TTITLE16=I'm Movin' On
TTITLE17=One Voice
TTITLE18=19 Somethin'
TTITLE19=One More Day
EXTD=
EXTT0=
EXTT1=
EXTT2=
EXTT3=
EXTT4=
EXTT5=
EXTT6=
EXTT7=
EXTT8=
EXTT9=
EXTT10=
EXTT11=
EXTT12=
EXTT13=
EXTT14=
EXTT15=
EXTT16=
EXTT17=
EXTT18=
EXTT19=
PLAYORDER=
